{"title":"300 Rise of an Empire 2014 BDRip 1080p x264 Dual Audio Org. BD A","uid":10466244,"size":3115007729,"categoryP":"video","categoryS":"hd___movies","magnet":"?xt=urn:btih:9ae2b984a98d6095bef9e8376c2ee345ae7a59b9&amp;dn=300+Rise+of+an+Empire+2014+BDRip+1080p+x264+Dual+Audio+Org.+BD+A&amp;tr=udp%3A%2F%2Ftracker.openbittorrent.com%3A80&amp;tr=udp%3A%2F%2Fopen.demonii.com%3A1337&amp;tr=udp%3A%2F%2Ftracker.coppersurfer.tk%3A6969&amp;tr=udp%3A%2F%2Fexodus.desync.com%3A6969","seeders":5,"leechers":1,"uploader":"Dj_YsB","files":8,"time":1404198311,"description":" &lt;a href=&quot;http://i.imgur.com/7kFoOAP.jpg&quot; rel=&quot;nofollow&quot; target=&quot;_NEW&quot;&gt;http://i.imgur.com/7kFoOAP.jpg&lt;/a&gt;\n\nGeneral\nComplete name                            : 300 Rise of an Empire 2014 BDRip 1080p x264 Dual Audio Org. BD Audio 5.1 Ch. [Hindi-Eng] YsB TeaM SSX.mkv\nFormat                                   : Matroska\nFormat version                           : Version 4 / Version 2\nFile size                                : 2.84 GiB\nDuration                                 : 1h 42mn\nOverall bit rate                         : 3 969 Kbps\nMovie name                               : 300 Rise of an Empire 2014 BDRip 1080p x264 Dual Audio Org. BD Audio 5.1 Ch. [Hindi-Eng] YsB TeaM SSX\n\nVideo\nID                                       : 1\nFormat                                   : AVC\nDuration                                 : 1h 42mn\nBit rate                                 : 3 072 Kbps\nWidth                                    : 1 920 pixels\nHeight                                   : 800 pixels\nFrame rate mode                          : Constant\nFrame rate                               : 23.976 fps\nStream size                              : 2.15 GiB (75%)\nTitle                                    : YsB TeaM SSX\n\nAudio #1\nID                                       : 2\nFormat                                   : AC-3\nDuration                                 : 1h 42mn\nBit rate mode                            : Constant\nBit rate                                 : 448 Kbps\nChannel(s)                               : 6 channels\nChannel positions                        : Front: L C R, Side: L R, LFE\nSampling rate                            : 48.0 KHz\nStream size                              : 329 MiB (11%)\nTitle                                    : YsB TeaM SSX\nLanguage                                 : Hindi\n\nAudio #2\nID                                       : 3\nFormat                                   : AC-3\nDuration                                 : 1h 42mn\nBit rate mode                            : Constant\nBit rate                                 : 448 Kbps\nChannel(s)                               : 6 channels\nChannel positions                        : Front: L C R, Side: L R, LFE\nSampling rate                            : 48.0 KHz\nStream size                              : 329 MiB (11%)\nTitle                                    : YsB TeaM SSX\nLanguage                                 : English\n\nText #1\nID                                       : 4\nFormat                                   : UTF-8\nCodec ID                                 : S_TEXT/UTF8\nCodec ID/Info                            : UTF-8 Plain Text\nTitle                                    : YsB TeaM SSX [Full]\nLanguage                                 : English\nDefault                                  : No\nForced                                   : No\n\nText #2\nID                                       : 5\nFormat                                   : UTF-8\nCodec ID                                 : S_TEXT/UTF8\nCodec ID/Info                            : UTF-8 Plain Text\nTitle                                    : YsB TeaM SSX [SDH]\nLanguage                                 : English\nDefault                                  : No\nForced                                   : No\n\nMenu\n00:00:00.000                             : en:Chapter 01\n00:10:26.376                             : en:Chapter 02\n00:20:54.628                             : en:Chapter 03\n00:31:15.290                             : en:Chapter 04\n00:40:58.498                             : en:Chapter 05\n00:50:50.714                             : en:Chapter 06\n01:00:05.435                             : en:Chapter 07\n01:09:51.813                             : en:Chapter 08\n01:19:51.245                             : en:Chapter 09\n01:31:07.295                             : en:Chapter 10\n01:33:57.131                             : en:Chapter 11\n\n &lt;a href=&quot;\nhttp://i.imgur.com/XHaitBQ.jpg&quot; rel=&quot;nofollow&quot; target=&quot;_NEW&quot;&gt;\nhttp://i.imgur.com/XHaitBQ.jpg&lt;/a&gt; &lt;a href=&quot;\nhttp://i.imgur.com/ERR7Yio.jpg&quot; rel=&quot;nofollow&quot; target=&quot;_NEW&quot;&gt;\nhttp://i.imgur.com/ERR7Yio.jpg&lt;/a&gt; &lt;a href=&quot;\nhttp://i.imgur.com/BDcSYVP.jpg&quot; rel=&quot;nofollow&quot; target=&quot;_NEW&quot;&gt;\nhttp://i.imgur.com/BDcSYVP.jpg&lt;/a&gt;","torrent":{"xt":"urn:btih:9ae2b984a98d6095bef9e8376c2ee345ae7a59b9","amp;dn":"300+Rise+of+an+Empire+2014+BDRip+1080p+x264+Dual+Audio+Org.+BD+A","amp;tr":["udp%3A%2F%2Ftracker.openbittorrent.com%3A80","udp%3A%2F%2Fopen.demonii.com%3A1337","udp%3A%2F%2Ftracker.coppersurfer.tk%3A6969","udp%3A%2F%2Fexodus.desync.com%3A6969"],"infoHash":"9ae2b984a98d6095bef9e8376c2ee345ae7a59b9","infoHashBuffer":{"type":"Buffer","data":[154,226,185,132,169,141,96,149,190,249,232,55,108,46,227,69,174,122,89,185]},"announce":[],"urlList":[]}}